<svg width="166" height="198" viewBox="0 0 166 198" fill="none" xmlns="http://www.w3.org/2000/svg">
<path d="M161.824 97.0253L165.829 94.5202L165.351 97.0253H161.824Z" fill="#6ECFE6"/>
<path d="M159.806 114.971L150.454 119.853L159.414 99.2772L164.072 106.134L160.648 113.69L159.806 114.971Z" fill="#00ACCF"/>
<path d="M111.84 130.856L138.798 123.322L126.1 135.019L111.84 130.856Z" fill="#0E87B8"/>
<path d="M109.636 129.967L105.367 119.454L137.454 122.191L109.636 129.967Z" fill="#00ACCF"/>
<path d="M64.9407 139.948L63.1207 138.289L65.0447 137.34L75.2331 142.139L69.7182 144.948L64.974 139.942L64.9407 139.948" fill="#1766B5"/>
<path d="M38.8799 118.174L56.8818 134.572L47.5509 133.162L38.8799 118.174Z" fill="#1766B5"/>
<path d="M98.4591 4.20401L100.889 3.773L97.5018 5.67206L98.4591 4.20401Z" fill="#47B8EC"/>
<path d="M152.077 55.6156L161.064 77.0731L126.347 54.9446L140.781 43.7982V44.4254L141.561 43.4321L151.882 55.3796L151.874 55.4114L152.077 55.6156Z" fill="#C4ECFB"/>
<path d="M89.0882 144.004L89.2162 144.201L85.3721 145.637L86.2548 139.192L86.3841 138.086L94.147 134.133L95.9751 137.008L89.9429 143.886L89.0882 144.004" fill="#1766B5"/>
<path d="M59.4673 134.962L40.54 117.722L70.105 133.173L64.9168 135.783L59.4673 134.962" fill="#1766B5"/>
<path d="M62.6446 136.906L61.9686 137.24L61.3953 136.718L62.6446 136.906Z" fill="#14599D"/>
<path d="M60.5699 137.93L54.4657 140.939L47.8562 138.924L47.8282 134.67L58.8085 136.328L60.5699 137.93Z" fill="#1766B5"/>
<path d="M11.8164 98.5439L13.5631 86.0871L14.2591 84.9625L33.4971 112.324L21.6607 105.789L11.8164 98.5439Z" fill="#0799E0"/>
<path d="M83.9214 145.49L79.9412 142.818L79.7599 141.459L84.824 138.882L84.8094 139.009L83.9214 145.49" fill="#1766B5"/>
<path d="M79.5572 139.936L78.8412 134.563L85.2787 135.028L85.0281 137.15L79.5572 139.936Z" fill="#1766B5"/>
<path d="M14.9871 53.69L34.1997 50.0338L14.7044 81.4826L14.9871 53.69Z" fill="#47B8EC"/>
<path d="M50.2149 19.9696L49.5336 24.6762L37.2558 27.3086L48.9762 16.2258L50.2149 19.9696" fill="#59C8DA"/>
<path d="M50.9763 25.7596L72.2783 12.3786L83.4947 76.8039L36.7705 48.648L50.891 25.8671L50.995 25.8445L50.9763 25.7596" fill="#96DDF8"/>
<path d="M83.72 79.7175L82.6493 120.968L37.7212 114.027L83.72 79.7175Z" fill="#47B8EC"/>
<path d="M36.6305 113.03V50.258L83.188 78.3118L36.6305 113.03Z" fill="#C4ECFB"/>
<path d="M84.1067 120.964L85.1374 81.2333L103.162 118.062L84.1067 120.964Z" fill="#59C8DA"/>
<path d="M35.1732 51.2234V112.178L15.0912 83.6191L35.1732 51.2234Z" fill="#47B8EC"/>
<path d="M81.8106 122.305L71.5636 132.299L40.116 115.864L81.8106 122.305Z" fill="#0B8ED8"/>
<path d="M81.1466 124.968L77.5491 133.007L73.285 132.608L81.1466 124.968Z" fill="#1766B5"/>
<path d="M86.7481 135L90.2082 134.512L86.5868 136.354L86.7481 135Z" fill="#1766B5"/>
<path d="M93.9817 132.515L86.0641 133.634L79.0892 133.129L83.86 122.467L102.718 119.595L93.9817 132.515Z" fill="#0B8ED8"/>
<path d="M85.4388 78.5372L123.992 56.4604L104.118 116.704L85.4388 78.5372Z" fill="#96DDF8"/>
<path d="M108.344 25.0037L125.121 24.1032L124.595 52.3215L108.344 25.0037Z" fill="#66CEF5"/>
<path d="M126.105 49.5577L126.575 24.4281L134.462 27.7833L126.105 49.5577Z" fill="#96DDF8"/>
<path d="M135.412 29.3601L140.627 42.0834L126.283 53.1583L135.412 29.3601Z" fill="#C4ECFB"/>
<path d="M108.964 23.5184L119.516 12.9992L124.687 22.6776L108.964 23.5184Z" fill="#66CEF5"/>
<path d="M96.6151 8.36291L110.37 7.19455L106.763 22.61L96.6151 8.36291Z" fill="#0799E0"/>
<path d="M105.122 22.8049L75.6251 11.49L94.9497 8.53397L105.122 22.8049Z" fill="#66CEF5"/>
<path d="M106.609 24.9308L123.884 53.9713L124.075 54.7431L85.0268 77.1077L73.7477 12.3229L106.609 24.9308" fill="#C4ECFB"/>
<path d="M71.101 11.4051L51.1097 23.9626L51.651 20.2242L62.2087 8.58172L71.101 11.4051Z" fill="#59C8DA"/>
<path d="M50.1563 15.1556L52.8577 12.917L51.011 17.7376L50.1563 15.1556Z" fill="#59C8DA"/>
<path d="M35.1998 27.2648L31.809 17.4856L37.9625 14.1662L47.7015 15.4354L35.1998 27.2648Z" fill="#59C8DA"/>
<path d="M35.8332 29.0962L48.9162 26.2901L35.6145 47.7502L25.2862 38.6261L34.9745 29.4662L36.2252 30.2261L35.8332 29.0962" fill="#47B8EC"/>
<path d="M34.3118 48.5379L15.4685 52.1226L24.3234 39.7162L34.3118 48.5379Z" fill="#47B8EC"/>
<path d="M13.2524 81.0529L10.8736 75.7323L13.4657 59.9218L13.2524 81.0529Z" fill="#0799E0"/>
<path d="M12.5244 82.9945L12.1617 85.5871L8.21494 91.9528L10.4457 78.3423L12.5244 82.9945Z" fill="#0799E0"/>
<path d="M71.9197 133.886L77.3558 134.434L78.1825 140.637L76.8665 141.306L66.6928 136.513L71.9197 133.886" fill="#1766B5"/>
<path d="M78.4265 143.644L78.0092 145.555L72.489 145.164L76.8931 142.92L78.4265 143.644" fill="#1766B5"/>
<path d="M79.7452 144.433L81.8186 145.826L79.4759 145.659L79.7452 144.433Z" fill="#1766B5"/>
<path d="M82.8039 147.348L78.1185 151.843L79.1612 147.091L82.8039 147.348Z" fill="#1766B5"/>
<path d="M83.7574 148.446V155.165L78.3185 153.662L83.7574 148.446Z" fill="#1766B5"/>
<path d="M96.6484 138.371L98.5885 142.697L92.1283 143.585L96.6484 138.371Z" fill="#1766B5"/>
<path d="M97.1098 136.093L95.6111 133.73L104.694 132.29L97.1098 136.093Z" fill="#1766B5"/>
<path d="M95.9457 132.21L104.086 120.167L108.183 130.268L95.9457 132.21Z" fill="#0E87B8"/>
<path d="M124.941 58.2256L140.557 121.002L105.198 117.984L124.941 58.2256Z" fill="#59C8DA"/>
<path d="M126.189 57.2084L158.381 97.7627L141.842 120.137L126.189 57.2084Z" fill="#6ECFE6"/>
<path d="M158.862 96.0307L128.915 58.3011L161.829 79.2812L158.862 96.0307Z" fill="#96DDF8"/>
<path d="M140.781 38.6221L136.735 28.7488L140.781 30.4702V38.6221Z" fill="#C4ECFB"/>
<path d="M127.676 23.3208L136.915 19.1765L134.914 26.3989L127.676 23.3208Z" fill="#96DDF8"/>
<path d="M125.457 21.0292L121.659 13.9195L126.06 16.7562L125.457 21.0292Z" fill="#96DDF8"/>
<path d="M108.394 22.0357L111.78 7.55655L118.545 11.9144L108.394 22.0357Z" fill="#66CEF5"/>
<path d="M98.5578 6.74359L104.951 3.15633L109.126 5.84577L98.5578 6.74359Z" fill="#0799E0"/>
<path d="M75.2091 10.0883L83.9027 2.63386L92.983 7.36825L75.2091 10.0883Z" fill="#66CEF5"/>
<path d="M73.2517 9.85211L71.0009 -1.55887e-05L83.1933 1.32751L73.2517 9.85211Z" fill="#66CEF5"/>
<path d="M71.8183 10.1121L63.3033 7.40811L69.6582 0.660501L71.8183 10.1121Z" fill="#59C8DA"/>
<path d="M53.0257 16.5454L55.0871 11.1532L59.4099 9.50608L53.0257 16.5454Z" fill="#59C8DA"/>
<path d="M53.8724 10.2394L49.0922 14.1556L39.3199 12.8812L55.7778 2.87257L53.8724 10.2394" fill="#59C8DA"/>
<path d="M33.5291 26.8935L29.537 24.4719L30.9783 19.5373L33.5291 26.8935Z" fill="#0E87B8"/>
<path d="M24.7248 37.1779L23.5301 29.2845H33.065L24.7248 37.1779Z" fill="#00ACCF"/>
<path d="M14.0858 51.5682L9.48962 37.2124L22.9274 39.1898L14.0858 51.5682Z" fill="#0799E0"/>
<path d="M9.79364 73.3161L6.15619 65.1734L12.6137 56.1249L9.79364 73.3161Z" fill="#0799E0"/>
<path d="M9.36566 75.9247L7.24025 88.8866L6.24289 68.9371L9.36566 75.9247Z" fill="#0799E0"/>
<path d="M7.7749 95.422L11.6604 89.1545L10.483 97.5624L7.99625 95.7311L7.7749 95.422" fill="#0B8ED8"/>
<path d="M11.5884 100.175L19.4513 105.957L15.7632 106.627L11.519 100.672L11.5884 100.175" fill="#0799E0"/>
<path d="M16.0792 108.042L21.1007 107.131L33.0904 113.755H15.1871L16.0792 108.042" fill="#0B8ED8"/>
<path d="M16.0179 115.203H35.4798L45.9281 133.264L34.5998 134.926L16.0179 115.203" fill="#0B8ED8"/>
<path d="M47.3895 140.298L53.2857 142.095L44.6574 143.685L47.3895 140.298Z" fill="#1766B5"/>
<path d="M61.7207 138.977L63.1487 140.278L56.6645 141.473L61.7207 138.977Z" fill="#1766B5"/>
<path d="M77.6932 146.986L76.5585 152.165L71.2116 146.525L77.6932 146.986Z" fill="#1766B5"/>
<path d="M80.2425 187.091L79.1052 190.802L77.1531 188.242L80.2425 187.091Z" fill="#1766B5"/>
<path d="M80.6839 185.379L76.8825 186.797L82.0266 170.36L80.6839 185.379Z" fill="#1766B5"/>
<path d="M76.8678 181.965L77.5585 156.052L82.472 164.066L76.8678 181.965Z" fill="#1766B5"/>
<path d="M76.6544 189.986L78.4865 192.388L76.5157 195.206L76.6544 189.986Z" fill="#1766B5"/>
<path d="M79.4132 193.601L81.9546 196.935L76.8638 197.247L79.4132 193.601Z" fill="#1766B5"/>
<path d="M92.527 198L85.0307 197.056L93.2857 189.703L92.527 198Z" fill="#1766B5"/>
<path d="M94.6457 190.833L97.1751 196.655L94.011 197.756L94.6457 190.833Z" fill="#1766B5"/>
<path d="M83.4613 196.511L80.1919 192.226L81.88 186.712L92.555 188.412L83.4613 196.511" fill="#1766B5"/>
<path d="M82.4987 181.441L83.912 165.648L87.7175 169.352L82.4987 181.441Z" fill="#1766B5"/>
<path d="M88.8322 170.44L92.6657 174.17L83.444 182.925L88.8322 170.44Z" fill="#1766B5"/>
<path d="M84.5387 164.233L91.5456 160.481L88.3322 167.926L84.5387 164.233Z" fill="#1766B5"/>
<path d="M84.22 162.757L85.1427 157.577L85.7681 157.226L91.5616 158.826L84.22 162.757" fill="#1766B5"/>
<path d="M83.7573 157.053L82.884 161.956L78.8039 155.3L83.7573 156.67V157.053" fill="#1766B5"/>
<path d="M85.2147 155.569V147.868L93.075 151.426L85.5747 155.669L85.2147 155.569Z" fill="#1766B5"/>
<path d="M86.3855 146.807L90.0189 145.449L92.735 149.681L86.3855 146.807Z" fill="#1766B5"/>
<path d="M91.5376 145.131L98.9112 144.116L94.7017 150.055L91.5376 145.131Z" fill="#1766B5"/>
<path d="M100.081 142.464L97.7898 137.374L106.93 132.791L100.081 142.464Z" fill="#1766B5"/>
<path d="M143.35 120.544L156.062 103.347L148.487 120.725H148.374L148.367 120.752L143.473 120.992L144.221 120.3L143.35 120.544Z" fill="#00ACCF"/>
<path d="M160.3 96.2655L162.813 82.0754L166 92.702L160.3 96.2655Z" fill="#00ACCF"/>
<path d="M162.655 77.105L154.813 58.3847L165.989 69.693L162.655 77.105Z" fill="#96DDF8"/>
<path d="M165.133 66.7621L153.51 54.9964L156.974 43.033L165.133 66.7621Z" fill="#96DDF8"/>
<path d="M152.364 53.7193L142.633 42.5065L151.774 37.2112L156.088 40.87L152.364 53.7193Z" fill="#96DDF8"/>
<path d="M150.6 36.2138L142.238 40.8541V31.1651L150.6 36.2138Z" fill="#C4ECFB"/>
<path d="M136.804 27.2025L140.781 24.0741V28.8947L136.804 27.2025Z" fill="#96DDF8"/>
<path d="M140.505 22.4442L136.686 25.4492L138.332 19.5133L140.505 22.4442Z" fill="#96DDF8"/>
<path d="M126.771 22.1378L127.476 17.1514L135.428 18.2548L126.771 22.1378Z" fill="#96DDF8"/>
<path d="M95.2057 6.53546L91.6149 2.31289L96.8858 3.95474L95.2057 6.53546Z" fill="#47B8EC"/>
<path d="M92.3216 5.38696L84.8881 1.51322L89.4509 2.00918L92.3216 5.38696Z" fill="#47B8EC"/>
<path d="M61.766 6.91999L61.7566 6.91733L61.5606 7.13484L55.5871 9.41187L57.5178 1.96012L68.0662 0.229428L61.766 6.91999Z" fill="#59C8DA"/>
<path d="M28.6902 25.6549L32.2837 27.8364H25.2075L28.6902 25.6549Z" fill="#00ACCF"/>
<path d="M22.1181 29.6943L23.3434 37.7866L10.691 35.9247L22.1181 29.6943Z" fill="#00ACCF"/>
<path d="M8.79496 39.8183L13.0298 53.0483L6.34555 62.407L8.79496 39.8183Z" fill="#0799E0"/>
<path d="M4.83749 69.9886L6.03086 93.8836L0 89.1638L4.83749 69.9886Z" fill="#0799E0"/>
<path d="M11.2244 102.765L14.6725 107.6L13.8471 112.898L10.3297 109.165L11.2244 102.765" fill="#0799E0"/>
<path d="M46.3708 134.665L46.4015 139.207L42.8174 143.648L35.8105 136.211L46.3708 134.665Z" fill="#0B8ED8"/>
<path d="M65.2421 197.956L75.2091 189.51L75.0024 197.359L65.2421 197.956Z" fill="#1766B5"/>
<path d="M98.6751 196.458L94.715 188.493L106.93 198L98.6751 196.458Z" fill="#1766B5"/>
<path d="M93.4217 187.082L82.9333 185.412L93.0403 175.817L93.4217 187.082Z" fill="#1766B5"/>
<path d="M92.9243 172.396L89.4469 169.011L92.5656 161.792L92.9243 172.396Z" fill="#1766B5"/>
<path d="M92.635 157.619L87.5535 156.215L93.687 152.746L92.635 157.619Z" fill="#1766B5"/>
<path d="M117.573 139.793L111.274 132.199L124.285 135.999L117.573 139.793Z" fill="#1766B5"/>
<path d="M135.63 134.084L128.405 134.872L139.83 124.344L136.452 133.793L135.63 134.084" fill="#1766B5"/>
<path d="M146.349 130.294L138.222 133.167L142.031 122.51L148.058 122.219L146.349 130.294" fill="#0E87B8"/>
<path d="M156.028 120.725H151.809L158.185 117.438L156.028 120.725Z" fill="#00ACCF"/>
<path d="M162.245 100.582L160.718 98.4736H164.517L162.245 100.582Z" fill="#6ECFE6"/>
<path d="M119.557 142.464L118.545 141.144L126.283 136.718L135.754 135.434L134.583 138.882L119.557 142.464Z" fill="#1766B5"/>
</svg>
