<svg width="323" height="328" viewBox="0 0 323 328" fill="none" xmlns="http://www.w3.org/2000/svg">
<path d="M34.7955 267.642L28.5666 244.679C27.666 241.561 27.095 239.45 26.8534 238.341C26.6098 237.233 26.3861 236.056 26.1785 234.809H25.9714C25.6938 236.332 25.3644 237.994 24.985 239.796C24.6037 241.598 24.2063 243.224 23.7905 244.679L17.458 267.642H34.7955ZM15.4858 274.917L10.1905 294.867C9.98337 295.49 9.75771 295.854 9.51612 295.958C9.27256 296.062 8.8757 296.113 8.32212 296.113H1.57437C1.01922 296.113 0.673803 296.027 0.536034 295.854C0.396818 295.681 0.431693 295.352 0.639332 294.867L21.7145 226.081C21.7828 225.735 21.9221 225.457 22.1298 225.249C22.3374 225.04 22.7173 224.936 23.2718 224.936H29.3971C29.8803 224.936 30.2278 225.04 30.4355 225.249C30.6431 225.457 30.8154 225.735 30.9546 226.081L52.133 294.867C52.2014 295.215 52.2186 295.474 52.1843 295.646C52.1488 295.821 52.0633 295.941 51.9251 296.009C51.8554 296.079 51.7699 296.113 51.6659 296.113C51.562 296.113 51.3027 296.113 50.8869 296.113H44.0353C43.5498 296.113 43.2037 296.027 42.9972 295.854C42.7892 295.681 42.6498 295.386 42.5813 294.97L36.768 274.917H15.4858" fill="#1D5EB3"/>
<path d="M69.3653 232.21V294.867C69.3653 295.352 69.2613 295.681 69.0534 295.854C68.8455 296.027 68.5337 296.113 68.1192 296.113H62.0979C61.6123 296.113 61.2676 296.027 61.0597 295.854C60.8518 295.681 60.7821 295.352 60.8518 294.867V226.184C60.8518 225.767 60.9386 225.475 61.111 225.301C61.2834 225.129 61.6123 225.006 62.0979 224.936H102.276C102.69 224.936 102.984 225.04 103.157 225.249C103.33 225.457 103.451 225.767 103.521 226.184V294.867C103.521 295.352 103.417 295.681 103.21 295.854C103.002 296.027 102.69 296.113 102.276 296.113H96.2532C95.7689 296.113 95.4229 296.027 95.215 295.854C95.0084 295.681 94.9373 295.352 95.0084 294.867V232.21H69.3653" fill="#1D5EB3"/>
<path d="M127.71 258.811H134.459C139.442 258.88 143.127 257.754 145.514 255.434C147.903 253.113 149.097 249.425 149.097 244.367C149.097 240.142 148.162 237.078 146.293 235.172C144.425 233.268 140.894 232.281 135.705 232.21H127.71V258.811ZM127.71 266.084V294.867C127.71 295.352 127.607 295.681 127.399 295.854C127.191 296.027 126.879 296.113 126.464 296.113H120.442C119.959 296.113 119.612 296.027 119.404 295.854C119.197 295.681 119.126 295.352 119.197 294.867V226.184C119.126 225.767 119.197 225.475 119.404 225.301C119.612 225.129 119.959 225.006 120.442 224.936H136.535C143.869 224.936 149.216 226.41 152.575 229.352C155.93 232.297 157.609 237.129 157.609 243.848C157.54 250.706 155.62 256.127 151.847 260.109C148.075 264.094 142.521 266.084 135.186 266.084H127.71" fill="#1D5EB3"/>
<path d="M202.664 290.087V294.867C202.664 295.352 202.56 295.681 202.352 295.854C202.144 296.027 201.834 296.113 201.419 296.113H169.235C168.749 296.113 168.405 296.027 168.197 295.854C167.989 295.681 167.919 295.352 167.989 294.867V226.184C167.989 225.767 168.076 225.475 168.248 225.301C168.42 225.129 168.749 225.006 169.235 224.936H201.834C202.18 224.936 202.457 225.04 202.664 225.249C202.872 225.457 202.941 225.699 202.872 225.976L201.106 231.275C200.968 231.69 200.795 231.968 200.589 232.106C200.381 232.246 200.103 232.281 199.757 232.21H176.504V255.277H196.956C197.369 255.347 197.662 255.47 197.837 255.642C198.008 255.816 198.129 256.108 198.199 256.524V261.305C198.199 261.79 198.097 262.12 197.889 262.292C197.679 262.465 197.369 262.551 196.956 262.551H176.504V288.841H201.419C201.834 288.841 202.126 288.943 202.301 289.152C202.473 289.36 202.594 289.672 202.664 290.087" fill="#1D5EB3"/>
<path d="M232.252 232.21L232.044 247.172C231.902 254.379 231.61 260.716 231.16 266.188C230.71 271.66 230.106 276.129 229.342 279.591C228.235 284.649 226.765 288.423 224.932 290.918C223.097 293.412 220.728 295.215 217.821 296.322C216.783 296.666 215.726 296.961 214.652 297.203C213.58 297.446 212.593 297.568 211.694 297.568C211.139 297.568 210.743 297.48 210.502 297.309C210.257 297.135 210.101 296.91 210.034 296.633L208.788 291.23C208.58 290.607 208.58 290.122 208.788 289.776C208.996 289.429 209.34 289.221 209.826 289.151L210.967 289.047C214.013 288.772 216.33 287.733 217.924 285.93C219.514 284.13 220.728 281.566 221.558 278.241C222.318 274.917 222.941 269.998 223.426 263.486C223.909 256.976 224.187 249.32 224.257 240.523L224.359 226.184C224.359 225.767 224.446 225.475 224.619 225.301C224.791 225.129 225.123 225.006 225.605 224.936H257.79C258.204 224.936 258.499 225.04 258.671 225.249C258.844 225.457 258.967 225.767 259.036 226.184V294.867C258.967 295.352 258.844 295.681 258.671 295.854C258.499 296.027 258.204 296.113 257.79 296.113H251.768C251.283 296.113 250.938 296.027 250.73 295.854C250.522 295.681 250.452 295.352 250.522 294.867V232.21H232.252" fill="#1D5EB3"/>
<path d="M287.272 288.841H297.342C301.565 288.91 304.869 287.784 307.257 285.463C309.644 283.143 310.84 279.939 310.84 275.853C310.771 271.418 309.472 268.059 306.947 265.772C304.42 263.486 301.045 262.309 296.823 262.24H287.272V288.841ZM287.272 254.966H297.448C300.354 254.966 303.086 255.314 305.648 256.004C308.209 256.7 310.493 257.737 312.5 259.122C314.993 260.992 316.876 263.315 318.159 266.084C319.439 268.855 320.112 272.042 320.184 275.643C320.112 278.552 319.666 281.221 318.833 283.645C318.002 286.07 316.862 288.112 315.406 289.776C313.538 291.854 311.184 293.429 308.347 294.504C305.51 295.577 301.843 296.113 297.342 296.113H280.005C279.522 296.113 279.175 296.027 278.967 295.854C278.761 295.681 278.689 295.352 278.761 294.867V226.184C278.689 225.767 278.761 225.475 278.967 225.301C279.175 225.129 279.522 225.006 280.005 224.936H286.026C286.442 224.936 286.735 225.04 286.91 225.249C287.083 225.457 287.204 225.767 287.272 226.184V254.966" fill="#1D5EB3"/>
<path d="M0 323.408V313.973C0 313.904 0.0107867 313.849 0.0313138 313.807C0.0524989 313.766 0.0900058 313.738 0.145534 313.724L0.600416 313.621L1.26136 313.455C1.27479 313.455 1.2994 313.451 1.33387 313.445C1.36835 313.439 1.39914 313.435 1.42743 313.435C1.46795 313.435 1.4994 313.451 1.51993 313.487C1.53993 313.521 1.55743 313.566 1.57177 313.621V319.227L1.50967 321.256H1.57177C1.84731 320.704 2.05758 320.29 2.20193 320.015C2.34641 319.738 2.4672 319.519 2.56378 319.353L5.72706 313.828C5.74035 313.8 5.75785 313.779 5.77785 313.766C5.79838 313.753 5.82312 313.738 5.85089 313.724L6.96672 313.455C6.99448 313.455 7.02171 313.455 7.04948 313.455C7.07724 313.455 7.10396 313.449 7.13225 313.435C7.17396 313.435 7.20475 313.451 7.2258 313.487C7.24633 313.521 7.26278 313.566 7.27725 313.621V323.408C7.27725 323.504 7.25673 323.57 7.21449 323.604C7.17396 323.639 7.11224 323.655 7.02895 323.655H5.95418C5.85707 323.655 5.78812 323.639 5.74759 323.604C5.70588 323.57 5.69206 323.504 5.70587 323.408V318.153L5.76759 316.144H5.70587C5.49929 316.532 5.30967 316.894 5.13743 317.231C4.96479 317.569 4.82387 317.834 4.71334 318.028L1.55124 323.552C1.52295 323.595 1.49572 323.621 1.46795 323.635C1.44071 323.65 1.39242 323.655 1.32361 323.655H0.248824C0.151584 323.655 0.0863174 323.639 0.0525003 323.604C0.0174989 323.57 0 323.504 0 323.408" fill="#115A5C"/>
<path d="M12.2794 319.187V323.408C12.2794 323.504 12.2589 323.57 12.2173 323.604C12.1761 323.639 12.114 323.655 12.0318 323.655H10.957C10.8598 323.655 10.794 323.639 10.7602 323.604C10.7257 323.57 10.7082 323.504 10.7082 323.406V313.953C10.7082 313.883 10.719 313.828 10.7395 313.787C10.7602 313.746 10.7982 313.717 10.8532 313.705L11.3081 313.601L11.9696 313.435C11.9828 313.435 12.0071 313.431 12.0421 313.425C12.076 313.418 12.1068 313.414 12.1351 313.414C12.1761 313.414 12.2071 313.431 12.2276 313.466C12.2481 313.5 12.2656 313.546 12.2794 313.601V317.904H16.2692V313.954C16.2692 313.884 16.28 313.829 16.3005 313.788C16.321 313.746 16.3585 313.719 16.4141 313.705L17.53 313.435C17.5578 313.435 17.5856 313.431 17.6133 313.425C17.6406 313.418 17.6678 313.414 17.696 313.414C17.7371 313.414 17.7679 313.431 17.7886 313.466C17.8091 313.5 17.8266 313.546 17.8404 313.601V323.406C17.8266 323.504 17.8019 323.57 17.7679 323.604C17.7331 323.639 17.6744 323.655 17.5921 323.655H16.5174C16.4202 323.655 16.352 323.639 16.3108 323.604C16.2692 323.57 16.2552 323.504 16.2692 323.408V319.187H12.2794" fill="#115A5C"/>
<path d="M27.2255 315.628V321.918C27.4733 322.153 27.7113 322.318 27.9385 322.415C28.1662 322.511 28.3754 322.558 28.5686 322.558C29.2718 322.573 29.7812 322.29 30.0988 321.711C30.4155 321.131 30.5744 320.09 30.5744 318.587C30.5744 317.193 30.4155 316.218 30.0988 315.658C29.7812 315.1 29.2923 314.821 28.6314 314.821C28.3831 314.821 28.1312 314.901 27.8763 315.059C27.6213 315.217 27.404 315.408 27.2255 315.628V315.628ZM25.6548 321.918V315.628C25.461 315.408 25.2369 315.217 24.9824 315.059C24.7275 314.901 24.4829 314.821 24.2484 314.821C23.5732 314.835 23.0771 315.117 22.76 315.669C22.4429 316.221 22.2917 317.193 22.3051 318.587C22.3051 320.09 22.4607 321.128 22.7702 321.701C23.0806 322.274 23.5942 322.558 24.3107 322.558C24.4895 322.558 24.6925 322.511 24.9203 322.415C25.1474 322.318 25.3927 322.153 25.6548 321.918V321.918ZM26.9774 328H25.9026C25.8053 327.987 25.7401 327.963 25.7057 327.929C25.6713 327.893 25.6548 327.835 25.6548 327.752V323.305C25.4332 323.525 25.1958 323.687 24.9408 323.791C24.686 323.894 24.414 323.945 24.1246 323.945C22.9949 323.945 22.1257 323.484 21.5202 322.558C20.9132 321.635 20.6104 320.325 20.6104 318.628C20.6104 316.918 20.9065 315.626 21.4991 314.748C22.0913 313.873 22.8771 313.435 23.8558 313.435C24.1452 313.449 24.4345 313.517 24.7245 313.642C25.0133 313.766 25.3238 313.966 25.6548 314.241V309.69C25.6548 309.635 25.6681 309.583 25.6953 309.534C25.7231 309.487 25.7643 309.455 25.8198 309.441L26.8118 309.193C26.9774 309.153 27.0842 309.149 27.132 309.183C27.1804 309.218 27.2112 309.283 27.2255 309.38V314.241C27.5423 313.966 27.8454 313.766 28.1348 313.642C28.4243 313.517 28.7209 313.449 29.0235 313.435C29.9883 313.435 30.7707 313.873 31.3699 314.748C31.9698 315.626 32.2689 316.918 32.2689 318.628C32.2689 320.325 31.9626 321.635 31.3494 322.558C30.7362 323.484 29.8712 323.945 28.7552 323.945C28.452 323.945 28.1724 323.894 27.9179 323.791C27.6625 323.687 27.4323 323.525 27.2255 323.305V327.752C27.2112 327.835 27.187 327.893 27.1532 327.929C27.1182 327.963 27.0596 327.987 26.9774 328" fill="#115A5C"/>
<path d="M38.4917 314.717C37.6509 314.717 37.0364 315.066 36.6522 315.763C36.2653 316.459 36.0732 317.435 36.0732 318.69C36.0732 319.96 36.2653 320.938 36.6522 321.627C37.0364 322.318 37.6509 322.662 38.4917 322.662C39.3181 322.662 39.9286 322.318 40.3207 321.627C40.7128 320.938 40.9102 319.96 40.9102 318.69C40.8957 317.435 40.6957 316.459 40.3102 315.763C39.9247 315.066 39.3181 314.717 38.4917 314.717V314.717ZM38.4917 313.435C39.7036 313.435 40.6892 313.886 41.4484 314.791C42.205 315.693 42.5919 316.994 42.605 318.69C42.605 320.401 42.2221 321.701 41.4576 322.591C40.6931 323.48 39.7036 323.93 38.4917 323.945C37.264 323.945 36.2719 323.497 35.5153 322.602C34.7574 321.705 34.3771 320.401 34.3771 318.69C34.3771 316.994 34.7574 315.697 35.5153 314.801C36.2719 313.904 37.264 313.449 38.4917 313.435Z" fill="#115A5C"/>
<path d="M47.0907 315.835V321.876C47.4355 322.083 47.8039 322.249 48.196 322.374C48.5894 322.498 48.9447 322.558 49.2619 322.558C49.9921 322.558 50.525 322.29 50.8632 321.752C51.2014 321.215 51.3698 320.159 51.3698 318.587C51.3567 317.152 51.1843 316.166 50.8527 315.628C50.5224 315.09 50.0119 314.821 49.3237 314.821C49.0197 314.835 48.6789 314.925 48.3 315.09C47.921 315.255 47.5184 315.504 47.0907 315.835V315.835ZM45.5196 327.772V316.413C45.5064 315.972 45.4604 315.611 45.3854 315.328C45.3091 315.045 45.1959 314.766 45.0446 314.489C44.9472 314.338 44.8998 314.256 44.8998 314.241C44.8998 314.228 44.8998 314.214 44.8998 314.201C44.8998 314.187 44.9038 314.169 44.9104 314.149C44.9169 314.128 44.9472 314.098 45.0025 314.054L45.892 313.497C45.9604 313.455 46.0222 313.439 46.0775 313.445C46.1328 313.451 46.188 313.484 46.2433 313.538C46.3538 313.676 46.4604 313.845 46.5644 314.045C46.667 314.245 46.746 314.448 46.8012 314.655L46.967 314.532C47.4763 314.158 47.9486 313.883 48.3829 313.704C48.8171 313.525 49.2474 313.435 49.675 313.435C50.7356 313.449 51.5659 313.9 52.1659 314.791C52.7659 315.68 53.0646 316.958 53.0646 318.628C53.0515 320.339 52.7278 321.652 52.0935 322.569C51.4593 323.487 50.5435 323.945 49.3448 323.945C48.9316 323.945 48.5302 323.883 48.1447 323.759C47.7592 323.635 47.4078 323.463 47.0907 323.242V327.463C47.0762 327.518 47.0565 327.569 47.0289 327.618C47.0012 327.665 46.967 327.697 46.9262 327.71L45.9328 327.959C45.7538 328 45.6367 328.004 45.5814 327.97C45.5262 327.934 45.5064 327.87 45.5196 327.772" fill="#115A5C"/>
<path d="M57.9635 313.911L59.5767 318.441C59.6307 318.607 59.6859 318.807 59.7412 319.042C59.7965 319.276 59.8583 319.545 59.928 319.849H59.9899C60.032 319.642 60.0899 319.393 60.1662 319.104C60.2412 318.815 60.307 318.594 60.3623 318.441L61.9544 313.911C61.9676 313.841 61.9873 313.796 62.0149 313.775C62.0426 313.755 62.0847 313.738 62.14 313.724H63.6071C63.6624 313.724 63.7006 313.742 63.7216 313.775C63.7413 313.811 63.7598 313.856 63.7729 313.911L64.3111 323.489C64.3111 323.545 64.2966 323.587 64.269 323.614C64.2414 323.642 64.2006 323.655 64.1453 323.655H62.9663C62.8979 323.655 62.8531 323.646 62.8321 323.625C62.811 323.604 62.8018 323.559 62.8018 323.489L62.5742 316.31C62.5597 316.31 62.5571 316.314 62.5637 316.321C62.5702 316.329 62.5742 316.069 62.5742 315.545H62.5321C62.4913 315.739 62.4597 315.894 62.44 316.011C62.4189 316.129 62.3939 316.229 62.3663 316.31L60.6307 321.339C60.5886 321.435 60.5583 321.498 60.5373 321.524C60.5175 321.553 60.4649 321.56 60.3833 321.545H59.5346C59.4385 321.545 59.3793 321.535 59.3596 321.514C59.3385 321.494 59.3148 321.435 59.2872 321.339L57.5714 316.31C57.5437 316.255 57.5161 316.173 57.4885 316.063C57.4608 315.952 57.4266 315.78 57.3845 315.545H57.3437C57.3292 316.069 57.3292 316.325 57.3437 316.31L57.1161 323.489C57.1029 323.559 57.0858 323.604 57.0648 323.625C57.0437 323.646 57.0055 323.655 56.9516 323.655H55.7726C55.7042 323.655 55.6555 323.642 55.6279 323.614C55.6002 323.587 55.5937 323.545 55.6068 323.489L56.145 313.911C56.145 313.856 56.1582 313.811 56.1858 313.775C56.2134 313.742 56.2621 313.724 56.3305 313.724H57.7779C57.8187 313.724 57.853 313.742 57.8806 313.775C57.9082 313.811 57.9359 313.856 57.9635 313.911" fill="#115A5C"/>
<path d="M72.2286 321.379V318.711H71.9181C70.8154 318.724 69.9469 318.922 69.3127 319.301C68.6785 319.681 68.3692 320.235 68.3824 320.966C68.3824 321.49 68.5206 321.904 68.7969 322.208C69.0719 322.511 69.4298 322.662 69.8719 322.662C70.2022 322.662 70.5706 322.556 70.9772 322.341C71.3838 322.128 71.7588 321.848 72.1036 321.505L72.2286 321.379ZM72.2286 317.429V316.683C72.2141 316.007 72.0628 315.528 71.7733 315.246C71.4838 314.963 71.0562 314.821 70.4917 314.821C70.1325 314.821 69.743 314.872 69.3232 314.976C68.9035 315.08 68.5284 315.207 68.1969 315.36C68.0587 315.428 67.9771 315.466 67.9495 315.473C67.9219 315.479 67.9008 315.483 67.8863 315.483C67.8455 315.497 67.8074 315.494 67.7732 315.473C67.7389 315.452 67.7218 315.42 67.7218 315.379L67.4113 314.552C67.3705 314.456 67.3771 314.37 67.4324 314.293C67.4876 314.218 67.6258 314.132 67.8455 314.035C68.3008 313.856 68.7653 313.712 69.2416 313.601C69.7167 313.491 70.1956 313.435 70.6772 313.435C71.697 313.435 72.4733 313.679 73.0023 314.169C73.5339 314.659 73.7984 315.36 73.7984 316.27V320.966C73.7984 321.215 73.8194 321.484 73.8616 321.773C73.9023 322.062 73.9642 322.29 74.0471 322.455C74.0747 322.538 74.1155 322.642 74.1708 322.766C74.226 322.89 74.2813 322.981 74.3366 323.035C74.3774 323.103 74.405 323.159 74.4195 323.201C74.4195 323.229 74.4089 323.252 74.3879 323.272C74.3682 323.293 74.3366 323.318 74.2945 323.346L73.4273 323.883C73.3168 323.938 73.2234 323.938 73.1484 323.883C73.072 323.828 72.9852 323.717 72.8905 323.553C72.7931 323.401 72.7247 323.276 72.6826 323.18C72.6418 323.084 72.5799 322.897 72.497 322.621L72.476 322.558L72.3931 322.642C71.8838 323.153 71.4088 323.497 70.9667 323.676C70.5259 323.855 70.0706 323.945 69.6035 323.945C68.7482 323.93 68.0666 323.67 67.556 323.159C67.0468 322.649 66.7981 321.939 66.8113 321.028C66.8113 320.159 67.0666 319.445 67.5771 318.886C68.0863 318.328 68.8035 317.939 69.7272 317.718C70.043 317.648 70.4193 317.583 70.8535 317.521C71.2878 317.459 71.6352 317.429 71.897 317.429H72.2286" fill="#115A5C"/>
<path d="M78.6985 322.374H82.4816V313.953C82.4816 313.883 82.4921 313.828 82.5132 313.787C82.5329 313.746 82.5711 313.717 82.6263 313.705L83.7421 313.435C83.7698 313.435 83.7974 313.435 83.825 313.435C83.8527 313.435 83.8803 313.429 83.9079 313.414C83.9487 313.414 83.9803 313.431 84.0014 313.466C84.0224 313.5 84.0382 313.546 84.0527 313.601V322.374H85.0659C85.1475 322.387 85.2133 322.404 85.262 322.425C85.3106 322.445 85.3409 322.517 85.3554 322.643V326.449C85.3554 326.532 85.3343 326.593 85.2922 326.636C85.2514 326.676 85.1896 326.698 85.1067 326.698H84.0316C83.9356 326.683 83.8658 326.659 83.825 326.625C83.7843 326.591 83.7698 326.532 83.7843 326.449V323.655H77.3761C77.2787 323.655 77.213 323.639 77.1787 323.604C77.1445 323.57 77.1274 323.504 77.1274 323.406V313.953C77.1274 313.883 77.138 313.828 77.159 313.787C77.1788 313.746 77.2169 313.717 77.2722 313.705L78.388 313.435C78.4156 313.435 78.4433 313.432 78.4709 313.425C78.4985 313.418 78.5262 313.414 78.5538 313.414C78.5946 313.429 78.6262 313.449 78.6472 313.476C78.667 313.504 78.6841 313.546 78.6985 313.601V322.374" fill="#115A5C"/>
<path d="M87.6278 323.408V313.973C87.6278 313.904 87.6396 313.849 87.6594 313.807C87.6804 313.766 87.7186 313.738 87.7739 313.724L88.2278 313.621L88.8897 313.455C88.9029 313.455 88.9279 313.451 88.9621 313.445C88.9963 313.439 89.0265 313.435 89.0555 313.435C89.0963 313.435 89.1266 313.451 89.1476 313.487C89.1687 313.521 89.1858 313.566 89.2002 313.621V319.227L89.1371 321.256H89.2002C89.4753 320.704 89.6858 320.29 89.8305 320.015C89.9739 319.738 90.095 319.519 90.1911 319.353L93.3543 313.828C93.3688 313.8 93.3859 313.779 93.4057 313.766C93.4267 313.753 93.4517 313.738 93.4793 313.724L94.5952 313.455C94.6228 313.455 94.6504 313.455 94.6781 313.455C94.7057 313.455 94.732 313.449 94.761 313.435C94.8018 313.435 94.832 313.451 94.8531 313.487C94.8741 313.521 94.8912 313.566 94.9057 313.621V323.408C94.9057 323.504 94.8846 323.57 94.8425 323.604C94.8018 323.639 94.7399 323.655 94.657 323.655H93.582C93.4846 323.655 93.4162 323.639 93.3754 323.604C93.3346 323.57 93.3201 323.504 93.3346 323.408V318.153L93.3964 316.144H93.3346C93.1267 316.532 92.9372 316.894 92.7662 317.231C92.5925 317.569 92.4517 317.834 92.3411 318.028L89.1792 323.552C89.1502 323.595 89.1239 323.621 89.0963 323.635C89.0687 323.65 89.02 323.655 88.9515 323.655H87.8765C87.7791 323.655 87.7147 323.639 87.6804 323.604C87.6449 323.57 87.6278 323.504 87.6278 323.408" fill="#115A5C"/>
<path d="M101.789 314.717C100.948 314.717 100.335 315.066 99.9494 315.763C99.5638 316.459 99.3704 317.435 99.3704 318.69C99.3704 319.96 99.5638 320.938 99.9494 321.627C100.335 322.318 100.948 322.662 101.789 322.662C102.617 322.662 103.226 322.318 103.619 321.627C104.011 320.938 104.207 319.96 104.207 318.69C104.194 317.435 103.994 316.459 103.609 315.763C103.222 315.066 102.617 314.717 101.789 314.717V314.717ZM101.789 313.435C103.002 313.435 103.988 313.886 104.746 314.791C105.504 315.693 105.889 316.994 105.902 318.69C105.902 320.401 105.521 321.701 104.756 322.591C103.99 323.48 103.002 323.93 101.789 323.945C100.563 323.945 99.5704 323.497 98.8125 322.602C98.0546 321.705 97.6756 320.401 97.6756 318.69C97.6756 316.994 98.0546 315.697 98.8125 314.801C99.5704 313.904 100.563 313.449 101.789 313.435Z" fill="#115A5C"/>
<path d="M110.244 319.187V323.408C110.244 323.504 110.223 323.57 110.181 323.604C110.141 323.639 110.079 323.655 109.996 323.655H108.921C108.825 323.655 108.759 323.639 108.725 323.604C108.69 323.57 108.672 323.504 108.672 323.406V313.953C108.672 313.883 108.684 313.828 108.704 313.787C108.725 313.746 108.763 313.717 108.818 313.705L109.272 313.601L109.934 313.435C109.947 313.435 109.972 313.431 110.006 313.425C110.041 313.418 110.071 313.414 110.1 313.414C110.141 313.414 110.172 313.431 110.192 313.466C110.213 313.5 110.23 313.546 110.244 313.601V317.904H114.234V313.954C114.234 313.884 114.245 313.829 114.266 313.788C114.287 313.746 114.322 313.719 114.379 313.705L115.493 313.435C115.522 313.435 115.55 313.431 115.576 313.425C115.604 313.418 115.633 313.414 115.66 313.414C115.703 313.414 115.733 313.431 115.754 313.466C115.774 313.5 115.792 313.546 115.805 313.601V323.406C115.792 323.504 115.767 323.57 115.733 323.604C115.697 323.639 115.641 323.655 115.555 323.655H114.481C114.387 323.655 114.317 323.639 114.276 323.604C114.234 323.57 114.22 323.504 114.234 323.408V319.187H110.244" fill="#115A5C"/>
<path d="M120.808 319.187V323.408C120.808 323.504 120.787 323.57 120.746 323.604C120.703 323.639 120.642 323.655 120.559 323.655H119.484C119.387 323.655 119.323 323.639 119.287 323.604C119.254 323.57 119.236 323.504 119.236 323.406V313.953C119.236 313.883 119.246 313.828 119.267 313.787C119.287 313.746 119.326 313.717 119.382 313.705L119.836 313.601L120.498 313.435C120.511 313.435 120.536 313.431 120.57 313.425C120.604 313.418 120.636 313.414 120.662 313.414C120.703 313.414 120.736 313.431 120.757 313.466C120.777 313.5 120.794 313.546 120.808 313.601V317.904H124.798V313.954C124.798 313.884 124.808 313.829 124.828 313.788C124.849 313.746 124.886 313.719 124.941 313.705L126.058 313.435C126.085 313.435 126.114 313.431 126.14 313.425C126.169 313.418 126.195 313.414 126.224 313.414C126.265 313.414 126.295 313.431 126.316 313.466C126.337 313.5 126.354 313.546 126.368 313.601V323.406C126.354 323.504 126.331 323.57 126.295 323.604C126.261 323.639 126.203 323.655 126.12 323.655H125.045C124.949 323.655 124.879 323.639 124.839 323.604C124.798 323.57 124.783 323.504 124.798 323.408V319.187H120.808Z" fill="#115A5C"/>
<path d="M133.252 314.717C132.411 314.717 131.797 315.066 131.411 315.763C131.026 316.459 130.833 317.435 130.833 318.69C130.833 319.96 131.026 320.938 131.411 321.627C131.797 322.318 132.411 322.662 133.252 322.662C134.078 322.662 134.688 322.318 135.081 321.627C135.473 320.938 135.669 319.96 135.669 318.69C135.656 317.435 135.456 316.459 135.07 315.763C134.684 315.066 134.078 314.717 133.252 314.717V314.717ZM133.252 313.435C134.463 313.435 135.449 313.886 136.207 314.791C136.965 315.693 137.351 316.994 137.365 318.69C137.365 320.401 136.984 321.701 136.218 322.591C135.452 323.48 134.463 323.93 133.252 323.945C132.024 323.945 131.032 323.497 130.274 322.602C129.516 321.705 129.137 320.401 129.137 318.69C129.137 316.994 129.516 315.697 130.274 314.801C131.032 313.904 132.024 313.449 133.252 313.435Z" fill="#115A5C"/>
<path d="M139.496 318.98V317.925C139.481 317.841 139.496 317.783 139.536 317.748C139.577 317.714 139.646 317.691 139.743 317.676H144.414C144.497 317.676 144.559 317.697 144.601 317.738C144.642 317.779 144.662 317.841 144.662 317.925V318.98C144.65 319.076 144.625 319.146 144.591 319.187C144.555 319.228 144.497 319.242 144.414 319.227H139.743C139.646 319.227 139.58 319.21 139.547 319.176C139.511 319.142 139.496 319.076 139.496 318.98Z" fill="#115A5C"/>
<path d="M149.004 315.008V323.408C149.004 323.504 148.984 323.57 148.942 323.604C148.9 323.639 148.838 323.655 148.756 323.655H147.68C147.584 323.655 147.518 323.639 147.484 323.604C147.451 323.57 147.433 323.504 147.433 323.408V313.973C147.433 313.89 147.451 313.83 147.484 313.796C147.518 313.763 147.584 313.738 147.68 313.724H154.109C154.194 313.724 154.251 313.745 154.286 313.786C154.32 313.828 154.345 313.89 154.358 313.973V323.408C154.358 323.504 154.337 323.57 154.296 323.604C154.255 323.639 154.194 323.655 154.109 323.655H153.036C152.94 323.655 152.87 323.639 152.829 323.604C152.787 323.57 152.774 323.504 152.787 323.408V315.008H149.004" fill="#115A5C"/>
<path d="M159.504 315.835V321.876C159.848 322.083 160.219 322.249 160.611 322.374C161.003 322.498 161.358 322.558 161.675 322.558C162.406 322.558 162.939 322.29 163.277 321.752C163.615 321.215 163.785 320.159 163.785 318.587C163.77 317.152 163.598 316.166 163.266 315.628C162.936 315.09 162.425 314.821 161.737 314.821C161.435 314.835 161.093 314.925 160.715 315.09C160.335 315.255 159.932 315.504 159.504 315.835V315.835ZM157.933 327.772V316.413C157.92 315.972 157.874 315.611 157.799 315.328C157.723 315.045 157.609 314.766 157.458 314.489C157.362 314.338 157.313 314.256 157.313 314.241C157.313 314.228 157.313 314.214 157.313 314.201C157.313 314.187 157.317 314.169 157.324 314.149C157.331 314.128 157.362 314.098 157.417 314.054L158.306 313.497C158.374 313.455 158.436 313.439 158.491 313.445C158.546 313.451 158.602 313.484 158.657 313.538C158.767 313.676 158.874 313.845 158.977 314.045C159.081 314.245 159.16 314.448 159.215 314.655L159.381 314.532C159.891 314.158 160.362 313.883 160.796 313.704C161.231 313.525 161.661 313.435 162.089 313.435C163.149 313.449 163.979 313.9 164.579 314.791C165.178 315.68 165.48 316.958 165.48 318.628C165.465 320.339 165.141 321.652 164.508 322.569C163.873 323.487 162.957 323.945 161.758 323.945C161.344 323.945 160.944 323.883 160.56 323.759C160.174 323.635 159.821 323.463 159.504 323.242V327.463C159.491 327.518 159.47 327.569 159.442 327.618C159.415 327.665 159.381 327.697 159.34 327.71L158.348 327.959C158.167 328 158.05 328.004 157.995 327.97C157.94 327.934 157.92 327.87 157.933 327.772" fill="#115A5C"/>
<path d="M172.839 321.379V318.711H172.528C171.426 318.724 170.557 318.922 169.924 319.301C169.289 319.681 168.98 320.235 168.994 320.966C168.994 321.49 169.131 321.904 169.406 322.208C169.682 322.511 170.042 322.662 170.482 322.662C170.813 322.662 171.181 322.556 171.588 322.341C171.994 322.128 172.369 321.848 172.714 321.505L172.839 321.379ZM172.839 317.429V316.683C172.825 316.007 172.673 315.528 172.384 315.246C172.094 314.963 171.667 314.821 171.102 314.821C170.744 314.821 170.355 314.872 169.935 314.976C169.513 315.08 169.138 315.207 168.807 315.36C168.67 315.428 168.586 315.466 168.56 315.473C168.531 315.479 168.51 315.483 168.498 315.483C168.456 315.497 168.418 315.494 168.384 315.473C168.348 315.452 168.332 315.42 168.332 315.379L168.022 314.552C167.98 314.456 167.988 314.37 168.043 314.293C168.097 314.218 168.236 314.132 168.456 314.035C168.91 313.856 169.376 313.712 169.851 313.601C170.326 313.491 170.806 313.435 171.288 313.435C172.307 313.435 173.082 313.679 173.613 314.169C174.144 314.659 174.41 315.36 174.41 316.27V320.966C174.41 321.215 174.431 321.484 174.472 321.773C174.513 322.062 174.575 322.29 174.658 322.455C174.685 322.538 174.726 322.642 174.781 322.766C174.836 322.89 174.892 322.981 174.947 323.035C174.988 323.103 175.015 323.159 175.03 323.201C175.03 323.229 175.019 323.252 174.998 323.272C174.979 323.293 174.947 323.318 174.906 323.346L174.038 323.883C173.927 323.938 173.834 323.938 173.759 323.883C173.682 323.828 173.597 323.717 173.5 323.553C173.404 323.401 173.335 323.276 173.293 323.18C173.252 323.084 173.189 322.897 173.107 322.621L173.086 322.558L173.005 322.642C172.494 323.153 172.019 323.497 171.578 323.676C171.136 323.855 170.681 323.945 170.213 323.945C169.359 323.93 168.676 323.67 168.166 323.159C167.656 322.649 167.409 321.939 167.422 321.028C167.422 320.159 167.677 319.445 168.186 318.886C168.697 318.328 169.414 317.939 170.336 317.718C170.653 317.648 171.03 317.583 171.464 317.521C171.898 317.459 172.246 317.429 172.509 317.429H172.839" fill="#115A5C"/>
<path d="M179.309 319.125V322.374H181.251C181.832 322.374 182.278 322.232 182.596 321.948C182.912 321.667 183.071 321.27 183.071 320.759C183.071 320.235 182.92 319.835 182.616 319.559C182.313 319.283 181.858 319.139 181.251 319.125H179.309ZM179.309 315.008V317.841H181.222C181.692 317.841 182.071 317.708 182.355 317.439C182.639 317.17 182.782 316.807 182.782 316.351C182.782 315.924 182.635 315.597 182.345 315.369C182.053 315.142 181.659 315.021 181.159 315.008H179.309ZM177.987 313.724H181.263C182.272 313.738 183.025 313.96 183.524 314.386C184.021 314.814 184.27 315.449 184.27 316.291C184.255 316.815 184.126 317.256 183.882 317.614C183.637 317.974 183.305 318.234 182.884 318.4C183.45 318.552 183.883 318.842 184.187 319.268C184.489 319.698 184.641 320.207 184.641 320.8C184.629 321.682 184.328 322.38 183.743 322.89C183.157 323.401 182.36 323.655 181.355 323.655H177.985C177.888 323.655 177.823 323.639 177.788 323.604C177.755 323.57 177.737 323.504 177.737 323.408V313.973C177.737 313.89 177.755 313.83 177.788 313.796C177.823 313.763 177.888 313.738 177.987 313.724Z" fill="#115A5C"/>
<path d="M190.99 314.717C190.149 314.717 189.534 315.066 189.149 315.763C188.763 316.459 188.571 317.435 188.571 318.69C188.571 319.96 188.763 320.938 189.149 321.627C189.534 322.318 190.149 322.662 190.99 322.662C191.815 322.662 192.425 322.318 192.819 321.627C193.211 320.938 193.407 319.96 193.407 318.69C193.394 317.435 193.194 316.459 192.808 315.763C192.421 315.066 191.815 314.717 190.99 314.717V314.717ZM190.99 313.435C192.2 313.435 193.186 313.886 193.945 314.791C194.703 315.693 195.089 316.994 195.102 318.69C195.102 320.401 194.72 321.701 193.954 322.591C193.19 323.48 192.2 323.93 190.99 323.945C189.762 323.945 188.77 323.497 188.012 322.602C187.254 321.705 186.875 320.401 186.875 318.69C186.875 316.994 187.254 315.697 188.012 314.801C188.77 313.904 189.762 313.449 190.99 313.435Z" fill="#115A5C"/>
<path d="M199.443 319.125V322.374H201.386C201.965 322.374 202.413 322.232 202.73 321.948C203.047 321.667 203.206 321.27 203.206 320.759C203.206 320.235 203.053 319.835 202.751 319.559C202.448 319.283 201.993 319.139 201.386 319.125H199.443ZM199.443 315.008V317.841H201.356C201.827 317.841 202.206 317.708 202.49 317.439C202.774 317.17 202.916 316.807 202.916 316.351C202.916 315.924 202.77 315.597 202.48 315.369C202.187 315.142 201.793 315.021 201.294 315.008H199.443ZM198.12 313.724H201.398C202.406 313.738 203.16 313.96 203.657 314.386C204.155 314.814 204.405 315.449 204.405 316.291C204.39 316.815 204.26 317.256 204.016 317.614C203.77 317.974 203.439 318.234 203.019 318.4C203.585 318.552 204.018 318.842 204.32 319.268C204.624 319.698 204.776 320.207 204.776 320.8C204.763 321.682 204.463 322.38 203.877 322.89C203.291 323.401 202.495 323.655 201.49 323.655H198.119C198.023 323.655 197.957 323.639 197.923 323.604C197.89 323.57 197.872 323.504 197.872 323.408V313.973C197.872 313.89 197.89 313.83 197.923 313.796C197.957 313.763 198.023 313.738 198.12 313.724" fill="#115A5C"/>
<path d="M212.343 321.379V318.711H212.034C210.931 318.724 210.063 318.922 209.429 319.301C208.794 319.681 208.484 320.235 208.498 320.966C208.498 321.49 208.636 321.904 208.911 322.208C209.188 322.511 209.546 322.662 209.986 322.662C210.317 322.662 210.685 322.556 211.093 322.341C211.498 322.128 211.875 321.848 212.218 321.505L212.343 321.379ZM212.343 317.429V316.683C212.329 316.007 212.177 315.528 211.888 315.246C211.6 314.963 211.171 314.821 210.608 314.821C210.248 314.821 209.859 314.872 209.439 314.976C209.018 315.08 208.643 315.207 208.313 315.36C208.175 315.428 208.092 315.466 208.064 315.473C208.036 315.479 208.015 315.483 208.002 315.483C207.96 315.497 207.923 315.494 207.888 315.473C207.853 315.452 207.836 315.42 207.836 315.379L207.527 314.552C207.485 314.456 207.492 314.37 207.547 314.293C207.602 314.218 207.74 314.132 207.96 314.035C208.415 313.856 208.88 313.712 209.356 313.601C209.831 313.491 210.31 313.435 210.792 313.435C211.813 313.435 212.588 313.679 213.118 314.169C213.648 314.659 213.914 315.36 213.914 316.27V320.966C213.914 321.215 213.935 321.484 213.976 321.773C214.017 322.062 214.079 322.29 214.163 322.455C214.189 322.538 214.231 322.642 214.287 322.766C214.342 322.89 214.397 322.981 214.452 323.035C214.493 323.103 214.52 323.159 214.534 323.201C214.534 323.229 214.523 323.252 214.504 323.272C214.483 323.293 214.452 323.318 214.41 323.346L213.542 323.883C213.431 323.938 213.339 323.938 213.263 323.883C213.188 323.828 213.101 323.717 213.005 323.553C212.909 323.401 212.839 323.276 212.798 323.18C212.756 323.084 212.694 322.897 212.612 322.621L212.591 322.558L212.509 322.642C211.998 323.153 211.523 323.497 211.083 323.676C210.64 323.855 210.185 323.945 209.718 323.945C208.863 323.93 208.181 323.67 207.671 323.159C207.161 322.649 206.913 321.939 206.927 321.028C206.927 320.159 207.181 319.445 207.692 318.886C208.202 318.328 208.918 317.939 209.842 317.718C210.159 317.648 210.534 317.583 210.968 317.521C211.402 317.459 211.751 317.429 212.013 317.429H212.343" fill="#115A5C"/>
<path d="M222.017 318.132V315.008H220.591C219.887 315.008 219.375 315.142 219.051 315.411C218.728 315.68 218.566 316.048 218.566 316.517C218.566 317.028 218.741 317.425 219.092 317.708C219.445 317.991 219.942 318.132 220.591 318.132H222.017ZM220.57 313.724H223.34C223.423 313.724 223.482 313.745 223.516 313.786C223.55 313.828 223.574 313.89 223.588 313.973V323.408C223.588 323.504 223.567 323.57 223.526 323.604C223.486 323.639 223.423 323.655 223.34 323.655H222.265C222.169 323.655 222.103 323.639 222.07 323.604C222.034 323.57 222.017 323.504 222.017 323.408V319.415H220.901C220.459 319.428 220.15 319.519 219.971 319.683C219.791 319.849 219.654 320.126 219.557 320.512L219.226 321.711C219.005 322.484 218.813 322.988 218.647 323.221C218.482 323.456 218.255 323.629 217.964 323.738C217.8 323.793 217.614 323.838 217.408 323.873C217.2 323.908 216.967 323.93 216.704 323.945C216.593 323.945 216.522 323.928 216.487 323.894C216.453 323.859 216.429 323.821 216.416 323.78L216.147 322.849C216.118 322.766 216.112 322.704 216.126 322.662C216.139 322.621 216.229 322.587 216.395 322.558L216.643 322.517C216.78 322.504 216.897 322.48 216.993 322.445C217.089 322.411 217.172 322.366 217.242 322.311C217.297 322.27 217.356 322.191 217.417 322.072C217.479 321.955 217.53 321.842 217.574 321.731L218.049 320.18C218.13 319.877 218.258 319.625 218.43 319.425C218.603 319.225 218.805 319.07 219.041 318.959V318.897C218.393 318.786 217.889 318.507 217.53 318.058C217.172 317.612 216.993 317.083 216.993 316.476C216.993 315.662 217.291 315 217.883 314.489C218.475 313.981 219.371 313.724 220.57 313.724Z" fill="#115A5C"/>
<path d="M233.386 315.008V323.408C233.386 323.504 233.366 323.57 233.324 323.604C233.282 323.639 233.22 323.655 233.139 323.655H232.062C231.966 323.655 231.9 323.639 231.866 323.604C231.833 323.57 231.815 323.504 231.815 323.408V313.973C231.815 313.89 231.833 313.83 231.866 313.796C231.9 313.763 231.966 313.738 232.062 313.724H238.492C238.576 313.724 238.634 313.745 238.668 313.786C238.702 313.828 238.727 313.89 238.74 313.973V323.408C238.74 323.504 238.719 323.57 238.678 323.604C238.636 323.639 238.576 323.655 238.492 323.655H237.418C237.32 323.655 237.252 323.639 237.21 323.604C237.169 323.57 237.155 323.504 237.169 323.408V315.008H233.386" fill="#115A5C"/>
<path d="M245.625 314.717C244.784 314.717 244.171 315.066 243.785 315.763C243.4 316.459 243.206 317.435 243.206 318.69C243.206 319.96 243.4 320.938 243.785 321.627C244.171 322.318 244.784 322.662 245.625 322.662C246.451 322.662 247.062 322.318 247.455 321.627C247.846 320.938 248.043 319.96 248.043 318.69C248.029 317.435 247.83 316.459 247.444 315.763C247.058 315.066 246.451 314.717 245.625 314.717V314.717ZM245.625 313.435C246.837 313.435 247.822 313.886 248.58 314.791C249.338 315.693 249.724 316.994 249.738 318.69C249.738 320.401 249.356 321.701 248.591 322.591C247.826 323.48 246.837 323.93 245.625 323.945C244.397 323.945 243.405 323.497 242.647 322.602C241.889 321.705 241.51 320.401 241.51 318.69C241.51 316.994 241.889 315.697 242.647 314.801C243.405 313.904 244.397 313.449 245.625 313.435" fill="#115A5C"/>
<path d="M257.675 315.008H254.884V316.372C254.87 317.572 254.784 318.663 254.626 319.642C254.468 320.622 254.209 321.532 253.851 322.374H257.675V315.008ZM253.726 313.724H258.957C259.053 313.724 259.123 313.745 259.163 313.786C259.205 313.828 259.233 313.904 259.248 314.014V322.374H260.198C260.281 322.387 260.345 322.404 260.395 322.425C260.442 322.445 260.473 322.517 260.487 322.642V326.449C260.487 326.532 260.466 326.593 260.425 326.636C260.384 326.676 260.321 326.698 260.238 326.698H259.163C259.067 326.683 258.999 326.659 258.957 326.625C258.916 326.591 258.902 326.532 258.916 326.449V323.655H252.9V326.449C252.9 326.532 252.88 326.593 252.838 326.636C252.796 326.676 252.734 326.698 252.653 326.698H251.576C251.48 326.683 251.412 326.659 251.37 326.625C251.329 326.591 251.314 326.532 251.329 326.449V322.642C251.314 322.517 251.337 322.445 251.392 322.425C251.446 322.404 251.521 322.387 251.618 322.374H252.238C252.693 321.449 253.007 320.493 253.179 319.507C253.351 318.522 253.437 316.994 253.437 314.925V314.014C253.424 313.89 253.441 313.815 253.489 313.786C253.538 313.759 253.616 313.738 253.726 313.724" fill="#115A5C"/>
<path d="M267.908 315.008H265.116V316.372C265.103 317.572 265.016 318.663 264.858 319.642C264.7 320.622 264.443 321.532 264.083 322.374H267.908V315.008ZM263.96 313.724H269.189C269.285 313.724 269.355 313.745 269.395 313.786C269.439 313.828 269.465 313.904 269.48 314.014V322.374H270.431C270.512 322.387 270.578 322.404 270.627 322.425C270.674 322.445 270.706 322.517 270.719 322.642V326.449C270.719 326.532 270.699 326.593 270.657 326.636C270.616 326.676 270.553 326.698 270.472 326.698H269.395C269.299 326.683 269.231 326.659 269.189 326.625C269.148 326.591 269.133 326.532 269.148 326.449V323.655H263.133V326.449C263.133 326.532 263.112 326.593 263.071 326.636C263.029 326.676 262.967 326.698 262.885 326.698H261.81C261.713 326.683 261.645 326.659 261.603 326.625C261.561 326.591 261.548 326.532 261.561 326.449V322.642C261.548 322.517 261.569 322.445 261.624 322.425C261.678 322.404 261.754 322.387 261.85 322.374H262.471C262.925 321.449 263.24 320.493 263.412 319.507C263.583 318.522 263.67 316.994 263.67 314.925V314.014C263.656 313.89 263.674 313.815 263.721 313.786C263.77 313.759 263.849 313.738 263.96 313.724" fill="#115A5C"/>
<path d="M273.842 317.738H278.308C278.308 317.435 278.276 317.127 278.214 316.817C278.152 316.508 278.072 316.229 277.976 315.98C277.797 315.581 277.554 315.273 277.242 315.059C276.932 314.846 276.564 314.731 276.136 314.717C275.434 314.717 274.878 314.989 274.473 315.535C274.065 316.08 273.855 316.815 273.842 317.738ZM279.362 321.835L279.734 322.766C279.734 322.794 279.737 322.818 279.744 322.839C279.751 322.86 279.754 322.877 279.754 322.89C279.74 322.96 279.675 323.032 279.558 323.107C279.44 323.184 279.251 323.283 278.989 323.408C278.602 323.574 278.214 323.701 277.822 323.791C277.429 323.879 277.039 323.93 276.654 323.945C275.289 323.945 274.197 323.493 273.377 322.591C272.557 321.686 272.147 320.386 272.147 318.69C272.132 317.064 272.517 315.78 273.294 314.842C274.072 313.904 275.068 313.435 276.281 313.435C277.452 313.449 278.361 313.873 279.01 314.706C279.658 315.541 279.988 316.828 280.002 318.566V318.669C279.988 318.793 279.968 318.882 279.94 318.938C279.913 318.993 279.858 319.021 279.775 319.021H273.842V319.125C273.842 320.145 274.101 320.973 274.617 321.607C275.134 322.242 275.826 322.558 276.694 322.558C277.039 322.558 277.39 322.504 277.748 322.394C278.108 322.283 278.514 322.097 278.969 321.835C279.038 321.808 279.087 321.786 279.113 321.773C279.142 321.759 279.175 321.746 279.217 321.731C279.23 321.731 279.244 321.731 279.259 321.731C279.271 321.746 279.289 321.759 279.31 321.773C279.33 321.786 279.347 321.808 279.362 321.835" fill="#115A5C"/>
<path d="M284.342 315.835V321.876C284.687 322.083 285.057 322.249 285.449 322.374C285.841 322.498 286.196 322.558 286.513 322.558C287.243 322.558 287.776 322.29 288.115 321.752C288.453 321.215 288.622 320.159 288.622 318.587C288.608 317.152 288.436 316.166 288.104 315.628C287.774 315.09 287.265 314.821 286.575 314.821C286.272 314.835 285.93 314.925 285.553 315.09C285.172 315.255 284.77 315.504 284.342 315.835V315.835ZM282.771 327.772V316.413C282.758 315.972 282.713 315.611 282.637 315.328C282.56 315.045 282.447 314.766 282.296 314.489C282.2 314.338 282.151 314.256 282.151 314.241C282.151 314.228 282.151 314.214 282.151 314.201C282.151 314.187 282.155 314.169 282.162 314.149C282.168 314.128 282.2 314.098 282.255 314.054L283.143 313.497C283.212 313.455 283.274 313.439 283.329 313.445C283.384 313.451 283.439 313.484 283.495 313.538C283.605 313.676 283.712 313.845 283.814 314.045C283.92 314.245 283.997 314.448 284.053 314.655L284.218 314.532C284.729 314.158 285.2 313.883 285.634 313.704C286.068 313.525 286.499 313.435 286.926 313.435C287.987 313.449 288.817 313.9 289.417 314.791C290.016 315.68 290.317 316.958 290.317 318.628C290.303 320.339 289.979 321.652 289.346 322.569C288.711 323.487 287.795 323.945 286.596 323.945C286.182 323.945 285.783 323.883 285.397 323.759C285.012 323.635 284.659 323.463 284.342 323.242V327.463C284.329 327.518 284.308 327.569 284.28 327.618C284.253 327.665 284.218 327.697 284.178 327.71L283.185 327.959C283.005 328 282.888 328.004 282.833 327.97C282.777 327.934 282.758 327.87 282.771 327.772" fill="#115A5C"/>
<path d="M297.324 317.863V313.954C297.311 313.885 297.317 313.829 297.346 313.788C297.373 313.746 297.414 313.719 297.469 313.705L297.903 313.601L298.586 313.435C298.614 313.435 298.641 313.431 298.669 313.425C298.696 313.418 298.724 313.414 298.752 313.414C298.793 313.414 298.824 313.431 298.844 313.466C298.865 313.5 298.882 313.546 298.895 313.601V317.863H299.599C299.957 317.863 300.232 317.778 300.425 317.604C300.619 317.431 300.77 317.145 300.881 316.745L301.149 315.669C301.301 315.062 301.483 314.607 301.697 314.305C301.91 314 302.189 313.779 302.533 313.642C302.658 313.601 302.827 313.555 303.041 313.506C303.255 313.459 303.431 313.435 303.568 313.435C303.651 313.435 303.712 313.449 303.755 313.476C303.795 313.504 303.823 313.546 303.836 313.601L304.064 314.532C304.078 314.614 304.066 314.673 304.034 314.706C303.998 314.742 303.919 314.766 303.795 314.78L303.506 314.821C303.327 314.848 303.185 314.891 303.082 314.945C302.978 315 302.899 315.076 302.844 315.173C302.803 315.242 302.758 315.342 302.71 315.473C302.662 315.604 302.61 315.765 302.556 315.96L302.328 316.787C302.189 317.27 302.011 317.638 301.79 317.893C301.57 318.149 301.294 318.325 300.964 318.422C301.294 318.518 301.573 318.676 301.799 318.897C302.027 319.118 302.203 319.401 302.328 319.746L302.968 321.731C302.997 321.855 303.041 321.973 303.103 322.083C303.165 322.193 303.23 322.27 303.299 322.311C303.353 322.366 303.431 322.411 303.527 322.445C303.623 322.48 303.747 322.504 303.898 322.517L304.147 322.558C304.298 322.587 304.381 322.621 304.394 322.662C304.409 322.704 304.409 322.766 304.394 322.849L304.126 323.78C304.098 323.821 304.066 323.859 304.034 323.894C303.998 323.928 303.932 323.945 303.836 323.945C303.56 323.93 303.32 323.908 303.112 323.873C302.906 323.838 302.727 323.793 302.576 323.738C302.299 323.629 302.076 323.463 301.903 323.242C301.732 323.022 301.535 322.511 301.314 321.711L300.902 320.243C300.777 319.843 300.625 319.559 300.447 319.393C300.266 319.228 299.991 319.146 299.619 319.146H298.895V323.489C298.882 323.545 298.857 323.587 298.824 323.614C298.789 323.642 298.737 323.655 298.669 323.655H297.552C297.469 323.655 297.41 323.642 297.377 323.614C297.342 323.587 297.324 323.545 297.324 323.489V319.146H296.6C296.215 319.159 295.932 319.246 295.754 319.404C295.574 319.562 295.431 319.843 295.32 320.243L294.906 321.711C294.671 322.511 294.469 323.022 294.296 323.242C294.123 323.463 293.907 323.629 293.645 323.738C293.479 323.793 293.294 323.842 293.087 323.883C292.88 323.924 292.645 323.945 292.384 323.945C292.274 323.93 292.2 323.911 292.167 323.883C292.133 323.855 292.108 323.821 292.094 323.78L291.825 322.849C291.799 322.766 291.791 322.704 291.805 322.662C291.819 322.621 291.909 322.587 292.074 322.558L292.321 322.517C292.459 322.504 292.578 322.48 292.674 322.445C292.77 322.411 292.853 322.366 292.921 322.311C292.976 322.27 293.034 322.193 293.098 322.083C293.159 321.973 293.211 321.855 293.251 321.731L293.894 319.746C294.004 319.401 294.173 319.118 294.399 318.897C294.627 318.676 294.913 318.518 295.258 318.422C294.913 318.325 294.631 318.149 294.409 317.893C294.19 317.638 294.017 317.27 293.894 316.787L293.666 315.96C293.596 315.765 293.538 315.604 293.49 315.473C293.442 315.342 293.404 315.242 293.376 315.173C293.307 315.076 293.221 315 293.119 314.945C293.015 314.891 292.88 314.848 292.715 314.821L292.425 314.78C292.287 314.766 292.2 314.742 292.167 314.706C292.133 314.673 292.129 314.614 292.157 314.532L292.384 313.601C292.384 313.546 292.405 313.504 292.446 313.476C292.487 313.449 292.557 313.435 292.653 313.435C292.776 313.435 292.945 313.459 293.159 313.506C293.373 313.555 293.549 313.601 293.686 313.642C294.017 313.779 294.288 314 294.503 314.305C294.717 314.607 294.906 315.062 295.071 315.669L295.34 316.745C295.436 317.145 295.582 317.431 295.774 317.604C295.967 317.778 296.25 317.863 296.623 317.863H297.324" fill="#115A5C"/>
<path d="M308.177 319.146V323.489C308.163 323.545 308.139 323.587 308.105 323.614C308.071 323.642 308.018 323.655 307.949 323.655H306.834C306.751 323.655 306.692 323.642 306.657 323.614C306.623 323.587 306.606 323.545 306.606 323.489V313.973C306.606 313.904 306.617 313.849 306.636 313.807C306.657 313.766 306.695 313.738 306.751 313.724L307.165 313.621L307.868 313.455C307.88 313.455 307.901 313.455 307.93 313.455C307.956 313.455 307.985 313.449 308.011 313.435H308.032C308.073 313.449 308.105 313.47 308.126 313.497C308.147 313.525 308.163 313.558 308.177 313.601C308.177 313.613 308.177 313.617 308.177 313.611C308.177 313.604 308.177 313.608 308.177 313.621V317.863H309.067C309.423 317.863 309.7 317.778 309.893 317.604C310.085 317.431 310.238 317.145 310.347 316.745L310.617 315.669C310.768 315.062 310.95 314.608 311.164 314.305C311.379 314 311.658 313.779 312.001 313.642C312.126 313.601 312.294 313.555 312.508 313.507C312.721 313.459 312.897 313.435 313.034 313.435C313.118 313.435 313.18 313.449 313.221 313.476C313.262 313.504 313.29 313.546 313.305 313.601L313.53 314.532C313.544 314.614 313.534 314.673 313.5 314.706C313.465 314.742 313.387 314.766 313.262 314.78L312.973 314.821C312.794 314.849 312.655 314.891 312.559 314.945C312.463 315 312.386 315.07 312.331 315.151C312.276 315.221 312.225 315.321 312.177 315.452C312.129 315.583 312.077 315.752 312.022 315.96L311.794 316.787C311.658 317.27 311.477 317.638 311.257 317.893C311.036 318.149 310.761 318.325 310.43 318.422C310.761 318.518 311.04 318.676 311.268 318.897C311.496 319.118 311.671 319.401 311.794 319.746L312.435 321.731C312.463 321.855 312.508 321.973 312.569 322.083C312.633 322.193 312.697 322.27 312.765 322.311C312.821 322.366 312.897 322.411 312.993 322.445C313.089 322.48 313.214 322.504 313.365 322.517L313.614 322.558C313.765 322.587 313.848 322.621 313.862 322.662C313.875 322.704 313.875 322.766 313.862 322.849L313.593 323.78C313.565 323.821 313.534 323.859 313.5 323.894C313.465 323.928 313.4 323.945 313.305 323.945C313.029 323.945 312.786 323.924 312.58 323.883C312.375 323.842 312.194 323.793 312.043 323.738C311.768 323.629 311.543 323.463 311.371 323.242C311.198 323.022 311.002 322.511 310.782 321.711L310.368 320.243C310.244 319.843 310.092 319.559 309.913 319.393C309.735 319.228 309.459 319.146 309.086 319.146H308.177" fill="#115A5C"/>
<path d="M320.809 321.379V318.711H320.499C319.396 318.724 318.527 318.922 317.895 319.301C317.259 319.681 316.95 320.235 316.964 320.966C316.964 321.49 317.101 321.904 317.376 322.208C317.652 322.511 318.012 322.662 318.452 322.662C318.783 322.662 319.151 322.556 319.558 322.341C319.964 322.128 320.339 321.848 320.684 321.505L320.809 321.379ZM320.809 317.429V316.683C320.795 316.007 320.643 315.528 320.354 315.246C320.064 314.963 319.637 314.821 319.072 314.821C318.714 314.821 318.325 314.872 317.905 314.976C317.483 315.08 317.108 315.207 316.777 315.36C316.641 315.428 316.556 315.466 316.53 315.473C316.501 315.479 316.481 315.483 316.468 315.483C316.426 315.497 316.388 315.494 316.354 315.473C316.32 315.452 316.302 315.42 316.302 315.379L315.993 314.552C315.95 314.456 315.958 314.37 316.013 314.293C316.067 314.218 316.206 314.132 316.426 314.035C316.88 313.856 317.346 313.712 317.821 313.601C318.297 313.491 318.776 313.435 319.258 313.435C320.278 313.435 321.053 313.679 321.584 314.169C322.114 314.659 322.38 315.36 322.38 316.27V320.966C322.38 321.215 322.401 321.484 322.442 321.773C322.483 322.062 322.545 322.29 322.628 322.455C322.655 322.538 322.696 322.642 322.751 322.766C322.807 322.89 322.862 322.981 322.917 323.035C322.958 323.103 322.986 323.159 323 323.201C323 323.229 322.989 323.252 322.968 323.272C322.949 323.293 322.917 323.318 322.876 323.346L322.008 323.883C321.897 323.938 321.805 323.938 321.729 323.883C321.653 323.828 321.567 323.717 321.471 323.553C321.374 323.401 321.305 323.276 321.263 323.18C321.222 323.084 321.159 322.897 321.078 322.621L321.057 322.558L320.975 322.642C320.464 323.153 319.989 323.497 319.549 323.676C319.106 323.855 318.651 323.945 318.184 323.945C317.329 323.93 316.647 323.67 316.137 323.159C315.626 322.649 315.379 321.939 315.392 321.028C315.392 320.159 315.647 319.445 316.158 318.886C316.667 318.328 317.384 317.939 318.306 317.718C318.625 317.648 319 317.583 319.434 317.521C319.868 317.459 320.216 317.429 320.479 317.429H320.809" fill="#115A5C"/>
<path d="M231.029 96.3535L234.982 93.8657L234.51 96.3535H231.029Z" fill="#6ECFE6"/>
<path d="M229.039 114.175L219.809 119.023L228.652 98.5898L233.248 105.399L229.869 112.903L229.039 114.175Z" fill="#00ACCF"/>
<path d="M181.703 129.95L208.306 122.468L195.775 134.084L181.703 129.95Z" fill="#0E87B8"/>
<path d="M179.527 129.068L175.315 118.626L206.98 121.345L179.527 129.068Z" fill="#00ACCF"/>
<path d="M135.42 138.979L133.624 137.332L135.523 136.389L145.577 141.155L140.135 143.944L135.453 138.973L135.42 138.979" fill="#1766B5"/>
<path d="M109.702 117.356L127.467 133.64L118.259 132.24L109.702 117.356Z" fill="#1766B5"/>
<path d="M168.498 4.17493L170.895 3.74691L167.553 5.63281L168.498 4.17493Z" fill="#47B8EC"/>
<path d="M221.411 55.2306L230.279 76.5394L196.019 54.5641L210.263 43.4949V44.1178L211.033 43.1314L221.218 54.9962L221.211 55.0277L221.411 55.2306Z" fill="#C4ECFB"/>
<path d="M159.25 143.007L159.377 143.203L155.583 144.629L156.454 138.229L156.582 137.13L164.243 133.204L166.047 136.059L160.094 142.889L159.25 143.007" fill="#1766B5"/>
<path d="M130.019 134.027L111.341 116.906L140.517 132.251L135.397 134.843L130.019 134.027" fill="#1766B5"/>
<path d="M133.155 135.958L132.487 136.29L131.922 135.771L133.155 135.958Z" fill="#14599D"/>
<path d="M131.107 136.975L125.083 139.963L118.561 137.962L118.533 133.738L129.369 135.384L131.107 136.975Z" fill="#1766B5"/>
<path d="M82.9948 97.8616L84.7185 85.4911L85.4054 84.3743L104.39 111.546L92.7096 105.056L82.9948 97.8616Z" fill="#0799E0"/>
<path d="M154.151 144.483L150.224 141.829L150.045 140.479L155.042 137.92L155.028 138.047L154.151 144.483" fill="#1766B5"/>
<path d="M149.845 138.967L149.138 133.631L155.491 134.093L155.244 136.2L149.845 138.967Z" fill="#1766B5"/>
<path d="M86.1238 53.3183L105.084 49.6874L85.8448 80.9184L86.1238 53.3183Z" fill="#47B8EC"/>
<path d="M120.888 19.8313L120.216 24.5053L108.1 27.1195L119.666 16.1135L120.888 19.8313" fill="#59C8DA"/>
<path d="M121.64 25.5813L142.662 12.2929L153.73 76.2722L107.621 48.3112L121.555 25.688L121.658 25.6656L121.64 25.5813" fill="#96DDF8"/>
<path d="M153.953 79.1656L152.896 120.13L108.559 113.237L153.953 79.1656Z" fill="#47B8EC"/>
<path d="M107.483 112.247V49.91L153.428 77.7696L107.483 112.247Z" fill="#C4ECFB"/>
<path d="M154.334 120.127L155.351 80.6709L173.139 117.245L154.334 120.127Z" fill="#59C8DA"/>
<path d="M106.044 50.8688V111.402L86.2265 83.0402L106.044 50.8688Z" fill="#47B8EC"/>
<path d="M152.068 121.458L141.956 131.383L110.922 115.061L152.068 121.458Z" fill="#0B8ED8"/>
<path d="M151.413 124.103L147.863 132.086L143.655 131.69L151.413 124.103Z" fill="#1766B5"/>
<path d="M156.941 134.066L160.356 133.581L156.782 135.41L156.941 134.066Z" fill="#1766B5"/>
<path d="M164.079 131.597L156.266 132.709L149.383 132.207L154.091 121.619L172.701 118.767L164.079 131.597Z" fill="#0B8ED8"/>
<path d="M155.649 77.9934L193.695 56.0695L174.083 115.896L155.649 77.9934Z" fill="#96DDF8"/>
<path d="M178.252 24.8306L194.81 23.9363L194.29 51.9592L178.252 24.8306Z" fill="#66CEF5"/>
<path d="M195.781 49.2146L196.244 24.259L204.027 27.591L195.781 49.2146Z" fill="#96DDF8"/>
<path d="M204.965 29.1568L210.111 41.792L195.956 52.7902L204.965 29.1568Z" fill="#C4ECFB"/>
<path d="M178.864 23.3556L189.278 12.9092L194.381 22.5206L178.864 23.3556Z" fill="#66CEF5"/>
<path d="M166.678 8.305L180.252 7.14473L176.693 22.4534L166.678 8.305Z" fill="#0799E0"/>
<path d="M175.073 22.647L145.964 11.4105L165.035 8.47488L175.073 22.647Z" fill="#66CEF5"/>
<path d="M176.54 24.7582L193.588 53.5976L193.777 54.364L155.242 76.5738L144.112 12.2375L176.54 24.7582" fill="#C4ECFB"/>
<path d="M141.5 11.3261L121.771 23.7967L122.305 20.0841L132.724 8.52226L141.5 11.3261Z" fill="#59C8DA"/>
<path d="M120.83 15.0507L123.496 12.8275L121.674 17.6148L120.83 15.0507Z" fill="#59C8DA"/>
<path d="M106.071 27.076L102.724 17.3645L108.797 14.0682L118.408 15.3285L106.071 27.076Z" fill="#59C8DA"/>
<path d="M106.696 28.8948L119.607 26.1081L106.48 47.4196L96.2874 38.3587L105.848 29.2622L107.082 30.0169L106.696 28.8948" fill="#47B8EC"/>
<path d="M105.194 48.2018L86.5989 51.7617L95.3374 39.4412L105.194 48.2018Z" fill="#47B8EC"/>
<path d="M84.4119 80.4918L82.0644 75.208L84.6224 59.5069L84.4119 80.4918Z" fill="#0799E0"/>
<path d="M83.6935 82.4199L83.3356 84.9946L79.4407 91.3161L81.6421 77.7999L83.6935 82.4199Z" fill="#0799E0"/>
<path d="M142.308 132.959L147.672 133.503L148.488 139.663L147.189 140.328L137.149 135.568L142.308 132.959" fill="#1766B5"/>
<path d="M148.729 142.65L148.317 144.547L142.869 144.159L147.216 141.931L148.729 142.65" fill="#1766B5"/>
<path d="M150.03 143.433L152.076 144.816L149.764 144.65L150.03 143.433Z" fill="#1766B5"/>
<path d="M153.049 146.328L148.425 150.791L149.454 146.073L153.049 146.328Z" fill="#1766B5"/>
<path d="M153.99 147.418V154.09L148.622 152.598L153.99 147.418Z" fill="#1766B5"/>
<path d="M166.711 137.413L168.626 141.709L162.25 142.59L166.711 137.413Z" fill="#1766B5"/>
<path d="M167.166 135.151L165.687 132.804L174.651 131.374L167.166 135.151Z" fill="#1766B5"/>
<path d="M166.018 131.295L174.051 119.335L178.094 129.367L166.018 131.295Z" fill="#0E87B8"/>
<path d="M194.632 57.8224L210.042 120.165L175.148 117.167L194.632 57.8224Z" fill="#59C8DA"/>
<path d="M195.864 56.8124L227.632 97.0858L211.31 119.305L195.864 56.8124Z" fill="#6ECFE6"/>
<path d="M228.107 95.3658L198.553 57.8975L231.035 78.7323L228.107 95.3658Z" fill="#96DDF8"/>
<path d="M210.263 38.3547L206.271 28.5498L210.263 30.2592V38.3547Z" fill="#C4ECFB"/>
<path d="M197.331 23.1593L206.448 19.0437L204.473 26.2161L197.331 23.1593Z" fill="#96DDF8"/>
<path d="M195.141 20.8836L191.392 13.8232L195.736 16.6402L195.141 20.8836Z" fill="#96DDF8"/>
<path d="M178.302 21.8831L181.643 7.50421L188.32 11.8319L178.302 21.8831Z" fill="#66CEF5"/>
<path d="M168.595 6.6969L174.905 3.13447L179.025 5.8053L168.595 6.6969Z" fill="#0799E0"/>
<path d="M145.554 10.0184L154.133 2.61565L163.094 7.31726L145.554 10.0184Z" fill="#66CEF5"/>
<path d="M143.622 9.78394L141.401 2.30724e-05L153.433 1.31836L143.622 9.78394Z" fill="#66CEF5"/>
<path d="M142.208 10.0421L133.805 7.35682L140.076 0.655936L142.208 10.0421Z" fill="#59C8DA"/>
<path d="M123.662 16.4308L125.696 11.076L129.962 9.44026L123.662 16.4308Z" fill="#59C8DA"/>
<path d="M124.498 10.1686L119.78 14.0577L110.137 12.7921L126.378 2.85273L124.498 10.1686" fill="#59C8DA"/>
<path d="M104.422 26.7073L100.482 24.3025L101.905 19.402L104.422 26.7073Z" fill="#0E87B8"/>
<path d="M95.7334 36.9205L94.5544 29.0818H103.964L95.7334 36.9205Z" fill="#00ACCF"/>
<path d="M85.2343 51.2112L80.6986 36.9548L93.9596 38.9184L85.2343 51.2112Z" fill="#0799E0"/>
<path d="M80.9986 72.8085L77.409 64.7221L83.7816 55.7363L80.9986 72.8085Z" fill="#0799E0"/>
<path d="M80.5763 75.399L78.4788 88.2712L77.4946 68.4598L80.5763 75.399Z" fill="#0799E0"/>
<path d="M79.0064 94.7613L82.8408 88.5372L81.6789 96.8869L79.2248 95.0682L79.0064 94.7613" fill="#0B8ED8"/>
<path d="M82.7697 99.4814L90.5292 105.223L86.8896 105.889L82.7013 99.9753L82.7697 99.4814" fill="#0799E0"/>
<path d="M87.2015 107.294L92.1569 106.389L103.989 112.967H86.3212L87.2015 107.294" fill="#0B8ED8"/>
<path d="M87.1409 114.405H106.347L116.658 132.342L105.478 133.992L87.1409 114.405" fill="#0B8ED8"/>
<path d="M118.1 139.327L123.919 141.111L115.404 142.69L118.1 139.327Z" fill="#1766B5"/>
<path d="M132.243 138.015L133.652 139.307L127.253 140.494L132.243 138.015Z" fill="#1766B5"/>
<path d="M148.005 145.969L146.885 151.111L141.609 145.51L148.005 145.969Z" fill="#1766B5"/>
<path d="M150.521 185.796L149.399 189.48L147.472 186.939L150.521 185.796Z" fill="#1766B5"/>
<path d="M150.957 184.095L147.205 185.503L152.282 169.18L150.957 184.095Z" fill="#1766B5"/>
<path d="M147.191 180.705L147.872 154.971L152.721 162.93L147.191 180.705Z" fill="#1766B5"/>
<path d="M146.98 188.671L148.788 191.056L146.843 193.854L146.98 188.671Z" fill="#1766B5"/>
<path d="M149.703 192.261L152.211 195.572L147.187 195.881L149.703 192.261Z" fill="#1766B5"/>
<path d="M162.644 196.629L155.246 195.691L163.393 188.39L162.644 196.629Z" fill="#1766B5"/>
<path d="M164.735 189.512L167.231 195.294L164.108 196.387L164.735 189.512Z" fill="#1766B5"/>
<path d="M153.697 195.15L150.471 190.895L152.137 185.419L162.671 187.107L153.697 195.15" fill="#1766B5"/>
<path d="M152.747 180.185L154.142 164.501L157.898 168.179L152.747 180.185Z" fill="#1766B5"/>
<path d="M158.998 169.259L162.781 172.964L153.68 181.659L158.998 169.259Z" fill="#1766B5"/>
<path d="M154.761 163.096L161.675 159.37L158.504 166.764L154.761 163.096Z" fill="#1766B5"/>
<path d="M154.446 161.63L155.357 156.486L155.974 156.137L161.691 157.727L154.446 161.63" fill="#1766B5"/>
<path d="M153.99 155.966L153.128 160.835L149.101 154.225L153.99 155.585V155.966" fill="#1766B5"/>
<path d="M155.428 154.492V146.844L163.185 150.378L155.783 154.591L155.428 154.492Z" fill="#1766B5"/>
<path d="M156.583 145.791L160.169 144.442L162.849 148.645L156.583 145.791Z" fill="#1766B5"/>
<path d="M161.667 144.126L168.944 143.118L164.79 149.016L161.667 144.126Z" fill="#1766B5"/>
<path d="M170.098 141.478L167.838 136.423L176.858 131.871L170.098 141.478Z" fill="#1766B5"/>
<path d="M212.798 119.709L225.344 102.632L217.868 119.889H217.757L217.75 119.916L212.92 120.154L213.658 119.467L212.798 119.709Z" fill="#00ACCF"/>
<path d="M229.525 95.5989L232.006 81.5072L235.151 92.0602L229.525 95.5989Z" fill="#00ACCF"/>
<path d="M231.849 76.5711L224.111 57.9805L235.14 69.2104L231.849 76.5711Z" fill="#96DDF8"/>
<path d="M234.295 66.2999L222.825 54.6156L226.244 42.7351L234.295 66.2999Z" fill="#96DDF8"/>
<path d="M221.694 53.3474L212.091 42.2122L221.112 36.9535L225.369 40.5871L221.694 53.3474Z" fill="#96DDF8"/>
<path d="M219.953 35.9631L211.701 40.5712V30.9492L219.953 35.9631Z" fill="#C4ECFB"/>
<path d="M206.339 27.0141L210.263 23.9074V28.6946L206.339 27.0141Z" fill="#96DDF8"/>
<path d="M209.99 22.2888L206.222 25.273L207.847 19.3782L209.99 22.2888Z" fill="#96DDF8"/>
<path d="M196.437 21.9846L197.133 17.0327L204.981 18.1284L196.437 21.9846Z" fill="#96DDF8"/>
<path d="M165.287 6.49017L161.744 2.29684L166.945 3.92732L165.287 6.49017Z" fill="#47B8EC"/>
<path d="M162.441 5.34967L155.105 1.50275L159.608 1.99527L162.441 5.34967Z" fill="#47B8EC"/>
<path d="M132.287 6.87211L132.278 6.86948L132.085 7.08548L126.19 9.34674L128.095 1.94659L138.505 0.227883L132.287 6.87211Z" fill="#59C8DA"/>
<path d="M99.6467 25.4773L103.193 27.6437H96.2097L99.6467 25.4773Z" fill="#00ACCF"/>
<path d="M93.1609 29.4888L94.3702 37.525L81.8842 35.676L93.1609 29.4888Z" fill="#00ACCF"/>
<path d="M80.013 39.5426L84.1921 52.6809L77.5958 61.9749L80.013 39.5426Z" fill="#0799E0"/>
<path d="M76.1076 69.5041L77.2853 93.2336L71.3337 88.5464L76.1076 69.5041Z" fill="#0799E0"/>
<path d="M82.4105 102.053L85.8133 106.855L84.9988 112.117L81.5276 108.409L82.4105 102.053" fill="#0799E0"/>
<path d="M117.095 133.732L117.125 138.243L113.588 142.654L106.673 135.268L117.095 133.732Z" fill="#0B8ED8"/>
<path d="M135.718 196.586L145.554 188.198L145.35 195.993L135.718 196.586Z" fill="#1766B5"/>
<path d="M168.711 195.097L164.803 187.188L176.858 196.629L168.711 195.097Z" fill="#1766B5"/>
<path d="M163.527 185.786L153.176 184.128L163.15 174.6L163.527 185.786Z" fill="#1766B5"/>
<path d="M163.036 171.202L159.604 167.841L162.682 160.671L163.036 171.202Z" fill="#1766B5"/>
<path d="M162.75 156.528L157.736 155.133L163.789 151.688L162.75 156.528Z" fill="#1766B5"/>
<path d="M187.361 138.825L181.145 131.284L193.985 135.057L187.361 138.825Z" fill="#1766B5"/>
<path d="M205.18 133.155L198.051 133.938L209.325 123.484L205.992 132.867L205.18 133.155" fill="#1766B5"/>
<path d="M215.758 129.392L207.738 132.245L211.497 121.662L217.445 121.372L215.758 129.392" fill="#0E87B8"/>
<path d="M225.309 119.889H221.146L227.438 116.625L225.309 119.889Z" fill="#00ACCF"/>
<path d="M231.445 99.8858L229.939 97.7918H233.687L231.445 99.8858Z" fill="#6ECFE6"/>
<path d="M189.319 141.478L188.32 140.167L195.956 135.771L205.302 134.496L204.147 137.92L189.319 141.478Z" fill="#1766B5"/>
</svg>
